PathFileType	4	(X/Y/Z)	C:/Users/beibeiliu/ov580/test_trc/User3\sequence.16_training_dense_left.trc
DataRate	CameraRate	NumFrames	NumMarkers	Units	OrigDataRate	OrigDataStartFrame	OrigNumFrames
120	120	7	19	mm	120	167	266
Frame#	Time	ThumbCMC			ThumbMCP			ThumbIP			ThumbTip			IndexMCP			IndexPIP			IndexTip			MiddleMCP			MiddlePIP			MiddleTip			RingMCP			RingPIP			RingTip			PinkyMCP			PinkyPIP			PinkyTip			BackHand1			BackHand2			BackHand3	
		X0	Y0	Z0	X1	Y1	Z1	X2	Y2	Z2	X3	Y3	Z3	X4	Y4	Z4	X5	Y5	Z5	X6	Y6	Z6	X7	Y7	Z7	X8	Y8	Z8	X9	Y9	Z9	X10	Y10	Z10	X11	Y11	Z11	X12	Y12	Z12	X13	Y13	Z13	X14	Y14	Z14	X15	Y15	Z15	X16	Y16	Z16	X17	Y17	Z17	X18	Y18	Z18	
166	1.38333	-236.087	-2.61018	-14.0765	-222.806	5.04592	-42.1108	-204.263	2.7406	-69.4578	-180.807	-7.89667	-73.5844	-207.747	-46.2484	-68.3803	-181.715	-36.6329	-90.7874	-166.086	-7.62778	-88.8522	-186.535	-59.9269	-64.9453	-163.193	-39.4334	-77.7654	-160.344	-7.17115	-55.5542	-173.365	-63.2164	-44.6841	-153.545	-43.0021	-58.7221	-152.527	-15.8953	-40.7035	-161.947	-62.0868	-27.7765	-148.117	-42.821	-40.8041	-145.891	-16.8562	-30.7879	-208.856	-64.4979	2.2442	-221.703	-51.0323	25.5999	-237.764	-39.8342	-7.63574	
167	1.39167	-237.339	-1.20714	-10.4517	-221.963	3.26067	-42.7069	-206.19	5.2294	-66.6819	-180.528	-4.70048	-77.1305	-205.769	-46.3004	-72.6704	-181.266	-34.768	-91.1918	-165.728	-7.96994	-87.4479	-185.682	-58.7017	-63.1726	-164.159	-39.7049	-77.9155	-159.511	-7.47793	-53.5103	-176.728	-59.8726	-45.8229	-151.942	-40.983	-58.5643	-154.603	-12.4197	-39.6784	-166.171	-60.6922	-27.9036	-145.323	-44.4134	-39.1339	-143.971	-16.0162	-30.588	-208.52	-64.6923	-1.05834	-219.755	-51.4969	25.7744	-236.883	-39.9858	-8.14931	
168	1.4	-234.309	-3.83024	-11.9133	-223.972	7.14448	-38.6635	-203.477	3.56742	-64.3149	-181.758	-0.535528	-77.6281	-206.911	-42.7291	-72.1645	-181.267	-30.9823	-91.4315	-164.908	-5.54267	-87.1607	-187.08	-54.3171	-66.2624	-163.749	-35.7301	-78.5548	-161.454	-2.19946	-51.9102	-172.063	-57.0325	-50.9327	-154.089	-35.6679	-60.492	-154.795	-11.1023	-42.9345	-164.36	-59.3182	-28.6759	-146.563	-40.0435	-42.5251	-147.67	-15.363	-33.8351	-208.881	-61.9634	-1.1272	-217.452	-53.1724	25.0326	-239.205	-40.4397	-6.2808	
169	1.40833	-237.286	2.97526	-8.83471	-220.964	6.93235	-38.2536	-202.979	6.51877	-62.8339	-183.001	3.7543	-72.968	-207.521	-36.7011	-73.2737	-185.118	-22.8993	-93.7317	-168.219	0.647725	-87.7761	-186.987	-51.4841	-65.1229	-165.272	-27.2911	-80.417	-160.885	0.107578	-55.6729	-176.192	-54.3066	-49.4289	-150.645	-35.1666	-58.9384	-153.464	-5.1245	-37.4839	-166.734	-56.0983	-32.8809	-144.84	-39.5915	-40.4498	-145.408	-13.2636	-31.3342	-210.355	-58.7898	-4.01429	-222.229	-52.3919	23.2688	-237.41	-39.4045	-6.82626	
170	1.41667	-234.705	4.5719	-10.9621	-221.565	17.2034	-37.4227	-204.56	17.1567	-59.8087	-179.275	8.16912	-73.3774	-205.615	-29.7055	-75.5428	-184.946	-16.9843	-92.5928	-165.446	7.0763	-85.5337	-186.903	-45.1873	-69.1608	-165.357	-20.683	-81.6271	-157.937	1.16792	-52.8205	-172.173	-49.8082	-54.2867	-151.842	-27.0211	-60.2737	-152.14	-4.4978	-40.8915	-165.202	-55.6245	-31.9182	-148.592	-38.5869	-43.7686	-148.068	-8.99586	-31.1451	-208.153	-57.4337	-4.65123	-220.029	-52.4147	22.2224	-237.885	-35.2497	-6.55281	
171	1.425	-232.89	10.3923	-6.68479	-216.029	19.8417	-32.3444	-198.824	20.0429	-57.951	-180.824	16.2947	-69.6293	-207.481	-20.1929	-76.6163	-185.587	-9.58595	-91.7424	-164.065	13.8382	-85.6231	-190.31	-37.1505	-70.8858	-168.255	-17.9262	-82.6659	-157.762	8.75202	-52.1893	-178.278	-43.19	-55.7595	-154.385	-26.9185	-63.2978	-151.788	0.908312	-38.7571	-168.05	-51.5616	-34.2647	-148.049	-33.4058	-46.8224	-146.268	-9.38587	-34.0011	-208.579	-54.6785	-10.8526	-222.441	-48.6133	21.6697	-239.213	-26.0122	-7.57117	
172	1.43333	-227.929	16.1356	-2.38688	-212.68	30.2574	-28.7787	-196.349	28.3178	-55.1046	-176.872	26.9226	-71.2373	-212.6	-10.4925	-71.7445	-188.93	-0.297332	-92.4021	-168.087	21.5333	-88.0055	-193.636	-29.5091	-69.2566	-170.096	-8.60411	-83.1281	-156.942	12.9845	-49.7116	-180.168	-35.7606	-60.8962	-155.265	-17.9129	-64.1541	-150.167	0.97744	-38.8427	-168.399	-48.4772	-37.9945	-149.074	-28.2863	-48.474	-144.437	-3.13944	-30.5687	-214.003	-46.4219	-13.6396	-220.646	-46.3128	17.8327	-236.165	-23.3627	-3.90574	
